<svg viewBox="0 0 32 32" xmlns="http://www.w3.org/2000/svg"><style>.st0{fill:#222a30}</style><g id="icons"><g id="html_x5F_5"><path class="st0" d="M20.2 12.5l-.1 1c0 .2-.1.3-.3.3H14c-.2 0-.3.2-.3.3l.1 1.2c0 .2.1.3.3.3h5.5c.2 0 .3.2.3.3l-.4 4.5c0 .1-.1.2-.2.3l-3.3 1h-.2l-3.3-1c-.1 0-.2-.2-.2-.3l-.2-2.1c0-.2.1-.3.3-.3h1.5v1.1c0 .1.1.3.2.3l1.7.4h.2l1.7-.4c.1 0 .2-.1.2-.3l.1-1.5c0-.2-.1-.3-.3-.3h-5.4c-.2 0-.3-.1-.3-.3l-.3-4.4c0-.2.1-.3.3-.3h7.8c.3-.2.4 0 .4.2z"/><path class="st0" d="M16 2C8.3 2 2 8.3 2 16s6.3 14 14 14 14-6.3 14-14S23.7 2 16 2zm5.7 20.5c0 .2-.1.4-.3.4l-5.2 1.6h-.3l-5.2-1.6c-.2-.1-.3-.2-.3-.4l-1-12.6c0-.3.2-.5.5-.5h12.3c.3 0 .5.2.5.5l-1 12.6z"/></g></g></svg>